<svg xmlns="http://www.w3.org/2000/svg" width="120" height="39" viewBox="0 0 120 39">
    <defs>
        <linearGradient id="uq8pxhq66a" x1="50.021%" x2="50.021%" y1="-.001%" y2="100.002%">
            <stop offset="0%" stop-color="#2079B0"/>
            <stop offset="28.63%" stop-color="#4A93B8"/>
            <stop offset="76.7%" stop-color="#83BEBF"/>
            <stop offset="100%" stop-color="#97CFBF"/>
        </linearGradient>
        <linearGradient id="6yyxfuohlb" x1=".062%" x2="100.034%" y1="49.946%" y2="49.946%">
            <stop offset="0%" stop-color="#5ABCAB"/>
            <stop offset="100%" stop-color="#E6E99A"/>
        </linearGradient>
        <linearGradient id="4aim95674c" x1="50.048%" x2="50.048%" y1="-.085%" y2="100.025%">
            <stop offset="0%" stop-color="#E53432"/>
            <stop offset="16.68%" stop-color="#D73948"/>
            <stop offset="57.48%" stop-color="#B33F72"/>
            <stop offset="86.19%" stop-color="#9A4189"/>
            <stop offset="100%" stop-color="#904192"/>
        </linearGradient>
        <linearGradient id="sb8hmj2tkd" x1="49.952%" x2="49.952%" y1=".114%" y2="99.89%">
            <stop offset="0%" stop-color="#F18779"/>
            <stop offset="11.94%" stop-color="#F2917A"/>
            <stop offset="71.28%" stop-color="#FABC77"/>
            <stop offset="100%" stop-color="#FDCB72"/>
        </linearGradient>
    </defs>
    <g fill="none" fill-rule="evenodd">
        <g fill-rule="nonzero">
            <g>
                <path fill="#000" d="M118 33.732c0 2.914-2.35 5.268-5.258 5.268H4.258C1.35 39-1 36.646-1 33.732V5.268C-1 2.354 1.35 0 4.258 0h108.484C115.65 0 118 2.354 118 5.268v28.464z" transform="translate(-290 -2651) translate(291 2651)"/>
                <g>
                    <path fill="url(#uq8pxhq66a)" d="M0.138 0.258L0.138 13.57 0.138 26.859 13.294 13.57z" transform="translate(-290 -2651) translate(291 2651) translate(9 7)"/>
                    <path fill="url(#6yyxfuohlb)" d="M16.813 9.978L11.523 6.856 0.138 0.164 0.138 0.258 13.294 13.57z" transform="translate(-290 -2651) translate(291 2651) translate(9 7)"/>
                    <path fill="url(#4aim95674c)" d="M0.138 26.859L0.138 26.953 11.523 20.262 16.813 17.139 13.294 13.57z" transform="translate(-290 -2651) translate(291 2651) translate(9 7)"/>
                    <path fill="url(#sb8hmj2tkd)" d="M16.813 9.978L13.294 13.57 16.813 17.139 22.885 13.57z" transform="translate(-290 -2651) translate(291 2651) translate(9 7)"/>
                </g>
                <g fill="#F9F9F9">
                    <path d="M3.773 11.405c-.486 0-.949-.095-1.366-.286-.416-.19-.763-.476-1.041-.88h-.093c.046.451.093.88.093 1.309v3.238H.208V3.429h.95L1.318 4.5h.047c.3-.429.648-.738 1.041-.929.394-.19.857-.285 1.366-.285 1.019 0 1.783.357 2.338 1.071.556.714.833 1.714.833 3s-.277 2.286-.833 3c-.555.69-1.342 1.048-2.338 1.048zm-.162-7.12c-.787 0-1.342.215-1.69.667-.347.453-.532 1.143-.532 2.12v.261c0 1.096.185 1.881.532 2.357.348.477.926.715 1.713.715.648 0 1.18-.286 1.551-.834.37-.547.556-1.31.556-2.261 0-.977-.185-1.739-.556-2.262-.37-.5-.903-.762-1.574-.762zM9.63 11.262L8.472 11.262 8.472.119 9.63.119zM16.273 11.262l-.231-1.12h-.07c-.37.5-.764.834-1.134 1-.37.168-.857.263-1.412.263-.764 0-1.343-.19-1.782-.595-.44-.405-.649-.977-.649-1.715 0-1.595 1.227-2.405 3.704-2.5l1.296-.047V6.07c0-.619-.139-1.071-.393-1.357-.255-.285-.671-.428-1.227-.428-.625 0-1.366.19-2.153.595l-.347-.905c.37-.214.787-.38 1.227-.5.44-.119.903-.19 1.342-.19.903 0 1.575.214 2.014.619.44.405.648 1.071.648 2v5.357h-.833zm-2.616-.833c.718 0 1.274-.215 1.69-.62.417-.404.625-.976.625-1.714v-.714l-1.157.048c-.926.023-1.574.19-1.99.452-.418.262-.603.667-.603 1.214 0 .429.116.762.37.976.255.239.602.358 1.065.358zM17.8 3.405h1.228l1.666 4.476c.37 1.024.602 1.762.672 2.214h.046c.07-.238.185-.666.37-1.238.186-.595.834-2.405 1.899-5.428h1.25l-3.287 8.928c-.325.881-.695 1.5-1.135 1.881-.44.381-.972.548-1.597.548-.347 0-.694-.048-1.042-.12v-.952c.255.048.533.096.857.096.787 0 1.366-.453 1.69-1.381l.416-1.12-3.032-7.904z" transform="translate(-290 -2651) translate(291 2651) translate(89 15)"/>
                </g>
                <g fill="#F9F9F9">
                    <path d="M34.805 5.053c.37.307 1.13.968 1.13 2.196 0 1.204-.668 1.77-1.337 2.314-.208.212-.438.448-.438.802 0 .354.23.543.415.709l.576.448c.692.614 1.338 1.157 1.338 2.29 0 1.535-1.453 3.07-4.175 3.07-2.306 0-3.413-1.133-3.413-2.338 0-.59.276-1.416 1.222-1.983.992-.614 2.33-.708 3.045-.755-.23-.284-.485-.59-.485-1.11 0-.284.07-.449.162-.638-.185.024-.346.024-.508.024-1.683 0-2.629-1.275-2.629-2.55 0-.756.323-1.582 1.015-2.172.9-.756 1.983-.897 2.837-.897h3.275l-1.015.59h-1.015zm-1.13 7.225c-.138-.024-.207-.024-.369-.024-.138 0-.992.024-1.66.26-.347.118-1.361.52-1.361 1.676 0 1.157 1.107 1.984 2.79 1.984 1.523 0 2.33-.756 2.33-1.748 0-.826-.53-1.275-1.73-2.148zm.461-3.093c.37-.378.393-.898.393-1.18 0-1.181-.692-3-2.007-3-.415 0-.853.213-1.107.544-.277.33-.346.779-.346 1.204 0 1.086.623 2.904 1.983 2.904.393-.024.83-.213 1.084-.472zM24.795 12.018c-2.514 0-3.875-2.007-3.875-3.825 0-2.125 1.707-3.943 4.106-3.943 2.33 0 3.782 1.865 3.782 3.825.023 1.913-1.43 3.943-4.013 3.943zm1.984-1.322c.392-.52.484-1.18.484-1.795 0-1.44-.669-4.155-2.63-4.155-.53 0-1.037.212-1.43.543-.622.567-.738 1.275-.738 1.983 0 1.606.785 4.25 2.7 4.25.622 0 1.245-.307 1.614-.826zM16.192 12.018c-2.514 0-3.875-2.007-3.875-3.825 0-2.125 1.707-3.943 4.105-3.943 2.33 0 3.783 1.865 3.783 3.825.023 1.913-1.43 3.943-4.013 3.943zm1.983-1.322c.392-.52.485-1.18.485-1.795 0-1.44-.67-4.155-2.63-4.155-.53 0-1.038.212-1.43.543-.622.567-.738 1.275-.738 1.983 0 1.606.784 4.25 2.699 4.25.623 0 1.245-.307 1.614-.826zM11.117 11.758l-2.283.543c-.923.142-1.753.284-2.63.284C1.8 12.585.116 9.279.116 6.682.115 3.518 2.491.567 6.551.567c.853 0 1.683.141 2.444.354 1.2.354 1.753.755 2.1 1.015L9.78 3.235l-.554.141.392-.66C9.065 2.171 8.096 1.18 6.205 1.18c-2.515 0-4.429 1.96-4.429 4.816 0 3.07 2.168 5.95 5.651 5.95 1.015 0 1.545-.212 2.03-.401V8.925l-2.4.142 1.27-.709h3.39l-.415.378c-.115.095-.138.142-.162.26-.023.141-.023.614-.023.779v1.983z" transform="translate(-290 -2651) translate(291 2651) translate(36 14)"/>
                    <path d="M39.857 11.286c-.53-.047-.646-.142-.646-.78V1.252v-.094c.069-.567.23-.661.715-.968h-2.284l-1.199.59h1.222V10.861c0 .33-.069.378-.438.874h2.814l.6-.354c-.254-.048-.53-.048-.784-.095zM46.338 11.451c-.185.095-.346.213-.53.284-.531.236-1.062.307-1.546.307-.507 0-1.292-.024-2.099-.638-1.13-.803-1.614-2.196-1.614-3.423 0-2.503 2.006-3.755 3.62-3.755.577 0 1.154.142 1.638.449.785.543.992 1.228 1.108 1.606L43.2 7.815l-1.222.095c.392 2.054 1.753 3.258 3.275 3.258.807 0 1.384-.283 1.937-.567l-.853.85zm-1.5-4.84c.3-.118.462-.212.462-.449 0-.637-.715-1.393-1.568-1.393-.646 0-1.823.496-1.823 2.244 0 .283.024.566.047.85l2.883-1.252z" transform="translate(-290 -2651) translate(291 2651) translate(36 14)"/>
                    <g>
                        <path d="M.577.094L.577 1.157.461 1.157.461.094.115.094.115 0 .923 0 .923.118.577.118zM2.007 1.181L2.007.094 2.007.094 1.684 1.181 1.591 1.181 1.269.094 1.269.094 1.269 1.181 1.153 1.181 1.153 0 1.361 0 1.661.944 1.661.944 1.961 0 2.168 0 2.168 1.181z" transform="translate(-290 -2651) translate(291 2651) translate(36 14) translate(47.284 4.25)"/>
                    </g>
                </g>
                <g fill="#FCFCFD">
                    <path d="M3.29 2.794h-.788c0-.094-.07-.338-.232-.75H1.112C.95 2.456.88 2.7.88 2.794H.14c0-.057.185-.488.58-1.294.393-.806.578-1.256.578-1.331h.95c0 .075.185.506.533 1.312.347.806.51 1.238.51 1.313zM2.153 1.65C1.876.956 1.737.581 1.737.525h-.046c0 .056-.139.431-.44 1.125h.903zM6.509 2.794h-.625c0-.057-.232-.338-.695-.881-.487-.563-.742-.938-.811-1.144h-.046c.046.3.07.562.07.806 0 .338 0 .731.045 1.219h-.602c.023-.413.047-.881.047-1.369s-.024-.9-.047-1.256h.741c0 .075.209.356.626.844.44.525.695.88.741 1.068H6c-.046-.3-.07-.562-.07-.806 0-.356-.022-.731-.045-1.125h.625c-.023.338-.046.75-.046 1.256 0 .525.023.975.046 1.388zM10.123 1.387c0 .375-.163.713-.464.994-.3.282-.718.432-1.274.432-.254 0-.579 0-1.019-.02.023-.412.023-.862.023-1.368 0-.488 0-.9-.023-1.256h1.042c.603 0 1.043.112 1.298.356.278.244.417.525.417.862zm-.695.094c0-.262-.093-.469-.278-.656-.186-.169-.464-.262-.857-.262-.07 0-.162 0-.301.018.023.263.023.544.023.844 0 .319 0 .637.023.956.116.019.208.019.324.019.348 0 .626-.094.788-.262.208-.188.278-.394.278-.657zM13.435 2.794h-.741c-.186-.469-.348-.769-.44-.881-.093-.113-.278-.17-.487-.17h-.278c0 .338 0 .694.023 1.05h-.694c.023-.412.023-.862.023-1.368 0-.488 0-.9-.023-1.256h1.18c.765 0 1.136.206 1.136.637 0 .338-.209.563-.649.694v.038c.162.037.325.15.44.318.14.15.302.469.51.938zM12.508.937c0-.262-.208-.393-.648-.393-.162 0-.301 0-.417.037.023.207.023.488.023.806h.232c.533 0 .81-.15.81-.45zM17.002 1.444c0 .412-.162.75-.463 1.031-.301.262-.695.413-1.158.413-.44 0-.81-.132-1.089-.375-.301-.244-.44-.563-.44-.957 0-.412.162-.75.463-1.031.301-.263.695-.413 1.158-.413.44 0 .811.132 1.09.376.3.243.44.562.44.956zm-.695.056c0-.281-.092-.506-.254-.675-.186-.169-.394-.262-.649-.262-.232 0-.44.093-.625.262-.163.169-.255.394-.255.675s.092.506.278.675c.185.169.393.263.648.263.232 0 .44-.094.626-.263.162-.187.231-.412.231-.675zM18.415 2.794h-.695c.024-.413.024-.881.024-1.369s0-.9-.024-1.256h.695c-.023.337-.023.75-.023 1.256-.023.506 0 .956.023 1.369zM22.029 1.387c0 .375-.162.713-.463.994-.302.282-.719.432-1.274.432-.255 0-.58 0-1.02-.02.023-.412.023-.862.023-1.368 0-.488 0-.9-.023-1.256H20.315c.602 0 1.042.112 1.297.356.278.244.417.525.417.862zm-.695.094c0-.262-.093-.469-.278-.656-.185-.169-.463-.262-.857-.262-.07 0-.162 0-.301.018.023.263.023.544.023.844 0 .319 0 .637.023.956.116.019.209.019.324.019.348 0 .626-.094.788-.262.208-.188.278-.394.278-.657zM26.8 2.794h-.787c0-.094-.07-.338-.232-.75h-1.158c-.162.412-.231.656-.231.75h-.742c0-.057.186-.488.58-1.294.393-.806.578-1.256.578-1.331h.95c0 .075.186.506.533 1.312.347.806.51 1.238.51 1.313zM25.643 1.65c-.278-.694-.417-1.069-.417-1.125h-.046c0 .056-.139.431-.44 1.125h.903zM29.696.863c0 .318-.139.562-.44.712-.301.15-.649.225-1.089.225h-.162c0 .244 0 .581.023.994h-.695c.023-.394.023-.844.023-1.369 0-.488 0-.9-.023-1.256H28.584c.324 0 .58.056.788.169.231.112.324.28.324.524zm-.625.112c0-.281-.232-.431-.718-.431-.116 0-.232.018-.371.037.023.263.023.544.023.863h.14c.624 0 .926-.169.926-.469zM32.684.863c0 .318-.139.562-.44.712-.301.15-.649.225-1.089.225h-.162c0 .244 0 .581.023.994h-.695c.024-.394.024-.844.024-1.369 0-.488 0-.9-.024-1.256H31.572c.325 0 .58.056.788.169.232.112.324.28.324.524zm-.625.112c0-.281-.232-.431-.718-.431-.116 0-.232.018-.37.037.022.263.022.544.022.863h.14c.601 0 .926-.169.926-.469zM37.572 1.444c0 .412-.162.75-.464 1.031-.3.262-.694.413-1.158.413-.44 0-.81-.132-1.088-.375-.302-.244-.44-.563-.44-.957 0-.412.162-.75.463-1.031.3-.263.695-.413 1.158-.413.44 0 .81.132 1.089.376.3.243.44.562.44.956zm-.695.056c0-.281-.093-.506-.255-.675-.185-.169-.394-.262-.649-.262-.231 0-.44.093-.625.262-.162.169-.255.394-.255.675s.093.506.278.675c.185.169.394.263.649.263.231 0 .44-.094.625-.263.162-.187.232-.412.232-.675zM40.93 2.794h-.625c0-.057-.232-.338-.695-.881-.486-.563-.741-.938-.81-1.144h-.047c.046.3.07.562.07.806 0 .338 0 .731.046 1.219h-.602c.023-.413.046-.881.046-1.369s-.023-.9-.046-1.256h.74c0 .075.21.356.626.844.44.525.695.88.742 1.068h.046c-.046-.3-.07-.562-.07-.806 0-.356 0-.731-.046-1.125h.626c-.024.338-.047.75-.047 1.256.023.525.023.975.047 1.388z" transform="translate(-290 -2651) translate(291 2651) translate(35 9)"/>
                </g>
            </g>
        </g>
    </g>
</svg>
